<svg width="24" height="25" viewBox="0 0 24 25" fill="none" xmlns="http://www.w3.org/2000/svg">
<g opacity="0.4">
<g clip-path="url(#clip0_1_87)">
<path d="M7.95 4.02002C10.5179 4.02002 12 6.17236 12 6.17236C12 6.17236 13.485 4.02002 16.05 4.02002C18.705 4.02002 21 6.09002 21 8.97002C21 13.2005 14.5604 17.6397 12.3651 19.5803C12.1582 19.7632 11.8418 19.7632 11.6349 19.5803C9.44056 17.6409 3 13.2003 3 8.97002C3 6.09002 5.295 4.02002 7.95 4.02002Z" fill="white" fill-opacity="0.8"/>
<path d="M3 8.88488C3 6.22299 5.15017 4.02002 7.86486 4.02002C9.98685 4.02002 11.3592 5.37878 12 6.20675C12.6408 5.37878 14.0132 4.02002 16.1351 4.02002C18.8506 4.02002 21 6.22304 21 8.88488C21 10.0499 20.5328 11.2062 19.8534 12.285C19.1716 13.3676 18.252 14.4103 17.29 15.3577C15.9567 16.6708 14.4757 17.8587 13.4134 18.7107C12.9618 19.0729 12.5859 19.3744 12.3293 19.599C12.1407 19.7639 11.8593 19.7639 11.6707 19.599C11.4141 19.3744 11.0381 19.0729 10.5866 18.7107C9.52431 17.8587 8.04326 16.6708 6.70997 15.3577C5.74802 14.4103 4.82836 13.3676 4.14659 12.285C3.46724 11.2062 3 10.0499 3 8.88488ZM7.86486 5.02002C5.70929 5.02002 4 6.7684 4 8.88488C4 9.78745 4.36553 10.7561 4.99277 11.7521C5.61759 12.7442 6.47833 13.726 7.41165 14.6452C8.71033 15.9242 10.0842 17.025 11.134 17.8661C11.4573 18.1252 11.7499 18.3596 12 18.567C12.2501 18.3596 12.5427 18.1252 12.866 17.8661C13.9158 17.025 15.2897 15.9242 16.5883 14.6452C17.5217 13.726 18.3824 12.7442 19.0072 11.7521C19.6345 10.7561 20 9.78745 20 8.88488C20 6.76835 18.2914 5.02002 16.1351 5.02002C14.0406 5.02002 12.8181 6.72213 12.5033 7.2303C12.2727 7.60252 11.7273 7.60251 11.4967 7.23029C11.1819 6.72212 9.95944 5.02002 7.86486 5.02002Z" fill="#15151A"/>
</g>
</g>
<defs>
<clipPath id="clip0_1_87">
<rect width="20" height="20" fill="white" transform="translate(2 2.02002)"/>
</clipPath>
</defs>
</svg>
