<svg version="1.1" xmlns="http://www.w3.org/2000/svg" xmlns:xlink="http://www.w3.org/1999/xlink" width="24" height="25" viewBox="0,0,245.75,256"><defs><clipPath id="clip-1"><rect x="2" y="2.02002" width="20" height="20" id="clip0_1_87" fill="none"></rect></clipPath></defs><g fill="none" fill-rule="nonzero" stroke="none" stroke-width="1" stroke-linecap="butt" stroke-linejoin="miter" stroke-miterlimit="10" stroke-dasharray="" stroke-dashoffset="0" font-family="none" font-weight="none" font-size="none" text-anchor="none" style="mix-blend-mode: normal"><g transform="translate(-0.005,4.915) scale(10.24,10.24)"><g opacity="0.4"><g clip-path="url(#clip-1)"><path d="M7.95,4.02002c2.5679,0 4.05,2.15234 4.05,2.15234c0,0 1.485,-2.15234 4.05,-2.15234c2.655,0 4.95,2.07 4.95,4.95c0,4.23048 -6.4396,8.66968 -8.6349,10.61028c-0.2069,0.1829 -0.5233,0.1829 -0.7302,0c-2.19434,-1.9394 -8.6349,-6.38 -8.6349,-10.61028c0,-2.88 2.295,-4.95 4.95,-4.95z" fill="#6e00d0"></path><path d="M3,8.88488c0,-2.66189 2.15017,-4.86486 4.86486,-4.86486c2.12199,0 3.49434,1.35876 4.13514,2.18673c0.6408,-0.82797 2.0132,-2.18673 4.1351,-2.18673c2.7155,0 4.8649,2.20302 4.8649,4.86486c0,1.16502 -0.4672,2.32132 -1.1466,3.40012c-0.6818,1.0826 -1.6014,2.1253 -2.5634,3.0727c-1.3333,1.3131 -2.8143,2.501 -3.8766,3.353c-0.4516,0.3622 -0.8275,0.6637 -1.0841,0.8883c-0.1886,0.1649 -0.47,0.1649 -0.6586,0c-0.2566,-0.2246 -0.6326,-0.5261 -1.0841,-0.8883c-1.06229,-0.852 -2.54334,-2.0399 -3.87663,-3.353c-0.96195,-0.9474 -1.88161,-1.9901 -2.56338,-3.0727c-0.67935,-1.0788 -1.14659,-2.2351 -1.14659,-3.40012zM7.86486,5.02002c-2.15557,0 -3.86486,1.74838 -3.86486,3.86486c0,0.90257 0.36553,1.87122 0.99277,2.86722c0.62482,0.9921 1.48556,1.9739 2.41888,2.8931c1.29868,1.279 2.67255,2.3798 3.72235,3.2209c0.3233,0.2591 0.6159,0.4935 0.866,0.7009c0.2501,-0.2074 0.5427,-0.4418 0.866,-0.7009c1.0498,-0.8411 2.4237,-1.9419 3.7223,-3.2209c0.9334,-0.9192 1.7941,-1.901 2.4189,-2.8931c0.6273,-0.996 0.9928,-1.96465 0.9928,-2.86722c0,-2.11653 -1.7086,-3.86486 -3.8649,-3.86486c-2.0945,0 -3.317,1.70211 -3.6318,2.21028c-0.2306,0.37222 -0.776,0.37221 -1.0066,-0.00001c-0.3148,-0.50817 -1.53726,-2.21027 -3.63184,-2.21027z" fill="#15151a"></path></g></g></g></g></svg>